<svg version="1.1" preserveAspectRatio="none" xmlns="http://www.w3.org/2000/svg" width="500" height="500" viewBox="0 0 500 500"><rect width="100%" height="100%" fill="#ffffff" fill-opacity="1"/><svg viewBox="106.1399 385.3919 397.5279 223.8093" width="333" height="187.47991499464567" x="83.5px" y="156.26px" xmlns="http://www.w3.org/2000/svg" xmlns:xlink="http://www.w3.org/1999/xlink" preserveAspectRatio="none"><defs></defs><style>.companyName {fill:#E9B0D6;fill-opacity:1;}.icon1 {fill:#929292;fill-opacity:1;}.icon2 {fill:#E9B0D6;fill-opacity:1;}.icon3 {fill:#E5E5E5;fill-opacity:1;}.icon3-str {stroke:#E5E5E5;stroke-opacity:1;}</style><g opacity="1" transform="rotate(0 106.1399 539.2012)">
<svg width="397.5279" height="70" x="106.1399" y="539.2012" version="1.1" preserveAspectRatio="none" viewBox="4.3359 -32.3828 186.23049999999998 32.793000000000006">
  <g transform="matrix(1 0 0 1 0 0)" class="companyName"><path id="id-D6z1nYkh6" d="M4.34 0L4.34-30.53L31.64-30.53L31.64-25.10L10.53-25.10L10.53-17.11L28.46-17.11L28.46-12.01L10.53-12.01L10.53 0L4.34 0Z M38.89 0L38.89-23.05L44.68-23.05L44.68-19.73Q46.59-21.15 48.72-22.19Q50.85-23.22 52.96-23.77L52.96-23.77L54.66-18.48Q51.32-18.14 48.79-16.98Q46.26-15.82 44.68-13.71L44.68-13.71L44.68 0L38.89 0Z M60.95-11.00L60.95-23.07L66.71-23.07L66.71-11.82Q66.71-10.21 67.07-8.90Q67.42-7.58 68.27-6.64Q69.12-5.70 70.53-5.19Q71.95-4.67 74.06-4.67L74.06-4.67Q75.05-4.67 76.08-4.88Q77.11-5.10 78.04-5.48Q78.98-5.86 79.79-6.39Q80.60-6.91 81.19-7.54L81.19-7.54L81.19-23.07L86.97-23.07L86.97 0L81.19 0L81.19-1.97Q79.06-0.70 76.91-0.16Q74.76 0.39 72.83 0.39L72.83 0.39Q69.66 0.39 67.41-0.37Q65.15-1.13 63.72-2.59Q62.28-4.04 61.62-6.16Q60.95-8.28 60.95-11.00L60.95-11.00Z M96.31 0L96.31-23.05L102.09-23.05L102.09-21.09Q104.40-22.40 106.50-22.93Q108.60-23.46 110.61-23.46L110.61-23.46Q113.25-23.46 115.49-22.69Q117.74-21.91 119.38-20.39Q121.02-18.87 121.95-16.59Q122.88-14.32 122.88-11.33L122.88-11.33L122.88 0L117.11 0L117.11-10.39Q117.11-12.29 116.58-13.78Q116.04-15.27 115.03-16.30Q114.03-17.32 112.59-17.86Q111.16-18.40 109.38-18.40L109.38-18.40Q108.44-18.40 107.46-18.20Q106.47-18.01 105.52-17.65Q104.57-17.29 103.70-16.75Q102.82-16.21 102.09-15.53L102.09-15.53L102.09 0L96.31 0Z M130.58-11.46L130.58-11.46Q130.58-14.00 131.51-16.20Q132.43-18.40 134.22-20.01Q136.01-21.62 138.60-22.54Q141.18-23.46 144.50-23.46L144.50-23.46Q145.95-23.46 147.41-23.28Q148.88-23.11 150.24-22.78Q151.59-22.46 152.79-22.02Q153.98-21.58 154.86-21.05L154.86-21.05L152.18-16.70Q150.29-17.58 148.60-17.99Q146.91-18.40 145.17-18.40L145.17-18.40Q143.18-18.40 141.59-17.88Q140.01-17.36 138.91-16.44Q137.80-15.51 137.23-14.25Q136.65-12.99 136.65-11.50L136.65-11.50Q136.65-10.02 137.27-8.76Q137.88-7.50 139.01-6.59Q140.13-5.68 141.72-5.17Q143.31-4.65 145.27-4.65L145.27-4.65Q147.41-4.65 149.32-5.25Q151.22-5.86 152.86-6.88L152.86-6.88L155.54-2.52Q154.50-1.89 153.29-1.36Q152.08-0.82 150.71-0.43Q149.33-0.04 147.81 0.19Q146.30 0.41 144.68 0.41L144.68 0.41Q141.38 0.41 138.76-0.49Q136.14-1.39 134.33-2.98Q132.51-4.57 131.54-6.74Q130.58-8.91 130.58-11.46Z M163.77 0L163.77-32.38L169.55-32.38L169.55-21.29Q171.37-22.29 173.60-22.87Q175.84-23.46 178.30-23.46L178.30-23.46Q181.15-23.46 183.43-22.62Q185.70-21.78 187.29-20.21Q188.87-18.63 189.72-16.39Q190.57-14.14 190.57-11.33L190.57-11.33L190.57 0L184.80 0L184.80-11.09Q184.80-12.73 184.28-14.09Q183.75-15.45 182.73-16.43Q181.72-17.40 180.26-17.94Q178.81-18.48 176.97-18.48L176.97-18.48Q174.77-18.48 172.87-17.77Q170.98-17.07 169.55-16.00L169.55-16.00L169.55 0L163.77 0Z"/></g>
</svg>
</g><g opacity="1" transform="rotate(0 225.3983 385.3919)">
<svg width="159.0111" height="123.8093" x="225.3983" y="385.3919" version="1.1" preserveAspectRatio="none" viewBox="4.631906986236572 15.725695610046387 91.67095184326172 71.37689208984375">
  <g transform="matrix(1 0 0 1 0 0)" class="icon1"><g><path d="M83.448,53.094c0.322,6.573-2.056,12.452-5.595,17.72c-2.796,4.163-6.051,7.946-10.208,10.622   c-1.176,0.757-2.429,1.385-3.658,1.916c-2.859,1.234-5.707,2.58-8.724,3.315c-3.574,0.87-7.067,0.333-10.611-0.698   c-2.502-0.728-4.943-1.565-7.374-2.53c-6.75-2.678-11.901-7.438-14.868-14.597c-1.807-4.36-3.078-8.93-3.304-13.92   c-0.253-5.599,0.609-10.872,2.149-16.029c1.287-4.308,3.791-7.884,6.579-11.238c4.674-5.621,10.417-9.245,16.963-11.496   c2.128-0.732,4.289-0.382,6.421-0.071c3.63,0.528,7.314,0.852,10.733,2.495c2.637,1.267,5.3,2.501,7.727,4.228   c3.29,2.341,5.549,5.765,7.634,9.299c2.608,4.422,4.451,9.214,5.506,14.376C83.249,48.594,83.56,50.68,83.448,53.094z    M81.861,51.899c0.027-1.194-0.137-2.351-0.367-3.528c-1.276-6.546-3.951-12.336-7.529-17.736   c-3.288-4.962-7.576-8.212-12.821-10.005c-2.195-0.751-4.431-1.374-6.671-1.939c-3.829-0.966-7.586-1.147-11.418,0.339   c-3.648,1.415-6.892,3.461-9.879,6.059c-2.472,2.15-4.977,4.366-6.642,7.328c-3.995,7.106-6.463,14.712-5.459,23.333   c0.517,4.436,1.176,8.777,3.641,12.537c0.668,1.02,1.304,2.097,1.874,3.164c1.788,3.351,4.466,5.531,7.416,7.382   c3.198,2.007,6.702,3.116,10.238,4.158c6.899,2.032,13.416,0.728,19.57-2.711c3.497-1.954,6.526-4.807,9.711-7.339   c0.457-0.363,0.861-0.846,1.193-1.35c1.299-1.97,2.661-3.903,3.805-5.981c0.957-1.739,2.084-3.453,2.449-5.494   C81.456,57.411,81.978,54.695,81.861,51.899z"></path><path d="M10.011,27.281c0.865-0.672,0.792-1.687,1.247-2.357c0.478-0.704,0.723-1.881,1.889-1.549   c1.065,0.304,1.76,1.058,1.92,2.296c0.101,0.784,0.152,1.575,0.231,2.362c0.038,0.378-0.001,0.796,0.522,1.078   c0.758-0.983,0.606-2.352,1.081-3.452c0.279-0.647,0.449-1.289,1.082-1.67c1.795-1.081,2.893-0.502,3.146,1.725   c0.053,0.469,0.056,0.948,0.041,1.421c-0.134,4.28-0.608,8.516-1.276,12.726c-0.323,2.035-1.185,3.791-2.722,4.919   c-2.281,1.674-2.652,4.041-2.091,6.651c1.017,4.73,1.418,9.517,1.61,14.341c0.102,2.563-0.345,5.044-0.886,7.501   c-0.406,1.844-1.59,2.959-3.213,3.452c-1.945,0.591-3.354-0.441-3.808-2.613c-0.49-2.342-0.379-4.618-0.151-7.018   c0.581-6.123,1.086-12.274,0.98-18.458c-0.022-1.26-0.373-2.314-1.34-3.091c-0.522-0.419-1.014-0.898-1.462-1.411   c-1.277-1.462-2.035-3.04-2.106-5.24c-0.108-3.33,0.084-6.652-0.067-9.977c-0.035-0.781,0.082-1.57,0.318-2.335   c0.551-1.783,2.192-2.96,3.822-2.68c0.612,0.105,0.814,0.576,0.851,1.179C9.67,25.782,9.554,26.51,10.011,27.281z M12.413,31.961   c0.07,0.63,0.158,1.259,0.205,1.89c0.047,0.632,0.056,1.267,0.077,1.901c0.043,1.286-0.066,2.538-0.707,3.657   c-0.958,1.671-2.574,1.753-3.718,0.194c-0.884-1.204-1.036-2.586-0.849-4.05c0.24-1.88,0.48-3.76,0.728-5.638   c0.106-0.802-0.012-1.581-0.193-2.352c-0.073-0.313-0.237-0.615-0.54-0.664c-0.306-0.049-0.536,0.186-0.695,0.464   c-0.472,0.828-0.642,1.736-0.623,2.714c0.067,3.323,0.584,6.599,0.959,9.887c0.182,1.599,0.815,3.139,2.053,4.058   c1.571,1.166,2.074,2.711,2.065,4.657c-0.028,6.491-0.702,12.936-0.941,19.412c-0.065,1.753,0.084,3.464,0.637,5.116   c0.235,0.702,0.651,1.245,1.423,1.25c0.779,0.005,1.431-0.282,1.758-1.095c0.2-0.497,0.325-1.043,0.42-1.58   c0.767-4.326,0.284-8.662-0.044-12.996c-0.215-2.841-0.786-5.631-1.15-8.451c-0.356-2.757,0.338-4.764,2.263-6.436   c1.236-1.074,2.313-2.3,2.74-4.103c0.927-3.918,1.319-7.917,1.57-11.944c0.024-0.393-0.007-0.792-0.034-1.187   c-0.023-0.339-0.173-0.602-0.493-0.686c-0.304-0.079-0.623,0.02-0.761,0.288c-0.244,0.473-0.434,0.992-0.58,1.515   c-0.623,2.239-0.576,4.54-0.376,6.839c0.135,1.552-0.126,3.012-0.761,4.361c-0.535,1.136-1.112,1.251-2.128,0.632   c-1.187-0.723-1.705-1.975-1.359-3.92c0.375-2.109,0.362-4.254,0.616-6.371c0.102-0.851,0.007-1.739-0.059-2.605   c-0.035-0.469-0.164-0.977-0.758-0.93c-0.521,0.041-0.733,0.449-0.788,0.955c-0.042,0.39-0.05,0.791-0.024,1.184   C12.435,29.271,12.561,30.613,12.413,31.961z M9.802,30.044c-0.585,2.5-0.89,5.012-0.802,7.581c0.019,0.56,0.353,0.853,0.78,1.002   c0.54,0.188,0.781-0.265,0.958-0.688c0.147-0.351,0.276-0.752,0.273-1.131C10.989,34.497,11.063,32.16,9.802,30.044z    M15.465,31.425c-0.426,1.954-0.995,3.879-0.181,5.852C16.197,35.369,15.614,33.369,15.465,31.425z"></path><path d="M85.759,73.217c-0.003-2.317,0.414-4.568,0.757-6.828c0.747-4.93,1.017-9.881,0.497-14.873   c-0.224-2.151-0.885-4.141-1.714-6.101c-1.726-4.082-2.869-8.324-2.121-12.861c0.314-1.908,0.73-3.784,1.831-5.459   c1.462-2.224,3.349-3.126,5.726-2.833c2.483,0.305,3.908,2.054,4.787,4.54c1.224,3.462,0.901,6.874-0.222,10.186   c-0.775,2.285-1.365,4.641-2.303,6.872c-0.794,1.887-0.674,4.061-0.522,6.076c0.385,5.12,1.015,10.22,1.523,15.33   c0.259,2.605,0.306,5.21-0.154,7.795c-0.72,4.045-3.744,5.257-6.747,2.717c-0.602-0.509-1.019-1.113-1.096-1.963   C85.922,74.949,85.84,74.083,85.759,73.217z M87.867,70.729c-0.02,0.309-0.099,0.861-0.084,1.411   c0.04,1.462,0.454,2.81,1.286,3.957c0.927,1.277,1.978,1.182,2.733-0.208c0.218-0.401,0.429-0.839,0.511-1.291   c0.426-2.334,0.699-4.673,0.259-7.067c-0.945-5.14-1.123-10.375-1.622-15.57c-0.388-4.038,0.751-7.817,1.745-11.609   c0.796-3.035,1.335-6.123,1.208-9.303c-0.085-2.139-1.031-3.747-2.441-4.085c-3.098-0.743-5.668,0.948-6.357,3.981   c-0.986,4.342-0.436,8.461,1.161,12.51c0.515,1.306,1.14,2.555,1.491,3.947c1.478,5.863,1.173,11.761,0.434,17.656   C87.964,66.866,87.689,68.651,87.867,70.729z"></path><path d="M27.827,49.881c0.126-4.391,1.65-10.139,5.368-14.96c3.063-3.972,7.027-6.488,11.683-7.374   c3.018-0.574,6.101-0.512,9.2-0.009c2.672,0.434,5.245,0.971,7.522,2.643c4.189,3.076,7.35,7.043,8.825,12.451   c0.31,1.138,0.649,2.268,1.004,3.39c1.525,4.821,0.985,9.598-0.509,14.192c-2.898,8.91-9.008,13.841-17.285,15.358   c-3.437,0.63-7.075,0.018-10.44-1.17c-3.707-1.31-7.197-3.221-9.926-6.494c-0.599-0.718-1.029-1.521-1.514-2.302   C29.157,61.423,28.011,56.753,27.827,49.881z M52.372,73.882c2.49,0.289,5.656-0.803,8.618-2.733   c3.209-2.091,5.856-4.891,7.66-8.429c1.826-3.582,2.354-7.59,1.735-11.712c-0.363-2.419-0.902-4.802-1.133-7.252   c-0.141-1.489-0.6-2.986-1.336-4.24c-1.737-2.963-3.944-5.524-6.634-7.427c-1.797-1.272-3.708-2.59-5.943-2.666   c-1.939-0.066-3.86-0.37-5.784-0.533c-5.783-0.492-10.341,2.31-14.377,6.216c-3.058,2.96-4.369,7.218-4.944,11.55   c-0.517,3.894-0.656,7.915,0.406,11.778c0.983,3.577,2.381,6.913,4.981,9.572c1.75,1.79,3.837,2.782,5.901,3.878   C44.633,73.537,47.932,74.2,52.372,73.882z"></path><path d="M88.682,28.778c1.243-0.021,2.102,0.603,2.524,1.579c1.291,2.986,1.25,6.017-0.006,8.991   c-0.72-1.267,0.007-2.491,0.105-3.704c0.204-2.54-0.023-4.707-2.279-6.081C88.885,29.477,88.85,29.177,88.682,28.778z"></path></g></g>
</svg>
</g></svg></svg>